<?xml version="1.0" standalone="no"?>
<!DOCTYPE svg PUBLIC "-//W3C//DTD SVG 20010904//EN"
 "http://www.w3.org/TR/2001/REC-SVG-20010904/DTD/svg10.dtd">
<svg version="1.0" xmlns="http://www.w3.org/2000/svg"
 width="1080.000000pt" height="1080.000000pt" viewBox="0 0 1080.000000 1080.000000"
 preserveAspectRatio="xMidYMid meet">
<metadata>
Created by potrace 1.14, written by Peter Selinger 2001-2017
</metadata>
<g transform="translate(0.000000,1080.000000) scale(0.100000,-0.100000)"
fill="#000000" stroke="none">
<path d="M5128 10795 c-2 -1 -48 -6 -103 -9 -102 -6 -135 -9 -240 -21 -69 -7
-119 -14 -155 -20 -14 -3 -43 -7 -65 -10 -22 -3 -51 -7 -65 -10 -14 -3 -38 -8
-55 -10 -79 -14 -169 -32 -250 -50 -185 -41 -647 -180 -680 -205 -5 -4 -22
-10 -37 -14 -50 -12 -241 -94 -423 -182 -360 -174 -753 -421 -1011 -634 -17
-14 -52 -43 -79 -65 -292 -238 -620 -579 -862 -895 -260 -340 -508 -766 -671
-1152 -65 -153 -70 -167 -137 -358 -95 -273 -197 -673 -220 -866 -4 -26 -8
-50 -10 -53 -2 -3 -6 -31 -10 -61 -4 -30 -9 -66 -10 -80 -2 -14 -6 -54 -10
-90 -4 -36 -8 -76 -11 -90 -26 -160 -25 -822 1 -1037 2 -16 6 -57 9 -93 4 -36
8 -76 10 -90 3 -14 10 -59 16 -100 45 -292 84 -468 157 -715 124 -420 292
-814 506 -1185 50 -87 251 -400 279 -435 5 -5 38 -50 75 -100 216 -292 559
-654 858 -906 186 -156 433 -334 650 -468 369 -227 839 -437 1267 -566 48 -14
95 -28 105 -30 10 -2 61 -15 113 -29 152 -41 447 -97 635 -120 22 -3 56 -7 75
-10 255 -37 829 -42 1155 -10 58 5 256 31 300 39 43 7 96 16 125 21 342 58
725 170 1088 318 89 36 170 70 180 75 9 5 82 41 162 80 417 203 835 485 1209
815 81 72 375 368 452 456 262 297 507 647 696 996 54 98 183 360 183 370 0 2
14 34 31 71 80 173 239 635 265 766 2 10 6 27 9 37 3 10 8 27 10 37 2 10 13
61 25 113 22 99 47 230 55 290 3 19 7 46 10 60 3 14 7 43 11 65 3 22 7 51 9
65 2 14 7 52 10 85 4 33 8 76 11 95 26 220 26 772 -1 1050 -7 75 -23 198 -35
270 -5 30 -11 71 -14 90 -3 19 -7 44 -10 55 -2 11 -7 40 -11 65 -4 25 -9 52
-11 60 -26 122 -46 208 -59 256 -9 32 -18 69 -21 82 -31 145 -194 606 -281
792 -125 268 -330 648 -355 658 -4 2 -8 8 -8 13 0 24 -251 379 -378 534 -154
188 -455 502 -617 642 -33 29 -73 64 -90 78 -16 15 -87 71 -157 126 -526 413
-1143 733 -1780 924 -48 14 -95 28 -105 30 -10 2 -52 13 -94 24 -116 32 -400
91 -519 107 -19 2 -60 8 -90 14 -30 5 -82 11 -115 15 -33 3 -82 8 -110 11 -27
3 -72 7 -100 10 -54 5 -682 13 -687 9z"/>
</g>
</svg>
